:SAMPLES-PER-SECOND 24
:FULLY-SPECIFIED
:DEGREES
499
root  -1.67477 39.8352 20.3368 -179.405 -24.3785 172.769
RightUpLeg  -12.8356 -29.0018 -12.7318
RightLeg  12.1444 -24.5487 3.4619
RightFoot  0.198903 -0.0938933 0.93645
RightToes  -1.74623e-010 0 -2.59999e-017
Spine  3.96564 -1.95773 2.6133
Spine1  11.3568 -1.11465 -1.87698
HEad  -9.1438 -12.6533 2.883
LeftShoulder1  1.56218 -2.71878 -18.5418
LeftArm  16.442 1.70999 -51.3854
LeftForeArm  119.806 -79.9212 -108.555
LeftHand  0.0771542 10.7692 2.81219
RightShoulder  2.66184 4.98035 25.317
RightArm  -2.66799 -19.0776 32.8584
RightForeArm  121.634 80.9822 96.8572
RightHand  -0.15053 -9.76137 2.51087
LeftUpLeg  10.166 21.4541 13.9359
LeftLeg  25.9807 4.68495 2.82238
LeftFoot  9.90498 1.55107 -8.58641
LeftToes  -6.27559e-011 -2.10356e-011 8.24929e-012
500
root  -1.83971 39.6871 21.753 -178.741 -30.7312 172.46
RightUpLeg  -12.1554 -27.7804 -15.8112
RightLeg  10.7799 -31.6084 3.81874
RightFoot  1.51062 -0.15857 1.50372
RightToes  -1.74623e-010 0 -2.59999e-017
Spine  3.47183 -3.46384 0.0902019
Spine1  11.6445 -3.45391 0.521744
HEad  -8.87016 -14.4591 3.66551
LeftShoulder1  1.54044 -2.64319 -18.4931
LeftArm  18.6675 -1.62666 -53.4006
LeftForeArm  112.299 -79.9271 -104.856
LeftHand  0.169916 10.7576 4.73116
RightShoulder  2.6792 4.94639 25.6645
RightArm  -3.86639 -22.6396 31.7066
RightForeArm  106.018 80.8883 83.4822
RightHand  -0.0950426 -9.92395 1.03161
LeftUpLeg  12.0099 20.7244 15.2206
LeftLeg  23.9377 4.07295 2.30763
LeftFoot  12.0459 2.05046 -10.1706
LeftToes  -6.27559e-011 -2.10356e-011 8.24929e-012
501
root  -2.01491 39.3128 23.3495 -177.804 -35.9221 171.758
RightUpLeg  -14.4615 -36.0607 -16.3183
RightLeg  11.9418 -25.7637 2.36566
RightFoot  4.22027 -0.212785 1.76801
RightToes  -1.74623e-010 0 -2.59999e-017
Spine  4.10804 -4.25035 -2.25336
Spine1  10.8918 -4.9309 2.09061
HEad  -8.88095 -16.8748 4.59281
LeftShoulder1  1.5398 -2.59814 -18.6809
LeftArm  21.3933 -6.03659 -55.1489
LeftForeArm  106.778 -80.0938 -99.775
LeftHand  0.115951 10.0407 4.06597
RightShoulder  2.68034 4.87382 25.9665
RightArm  -6.08685 -25.3187 30.534
RightForeArm  72.878 79.0267 59.5409
RightHand  -0.00432323 -8.13255 -1.60532
LeftUpLeg  13.0031 21.4146 15.5851
LeftLeg  23.1333 2.43642 1.47582
LeftFoot  7.41667 2.57478 -15.7798
LeftToes  -6.27559e-011 -2.10356e-011 8.24929e-012
502
root  -2.17412 38.5143 25.0702 -177.259 -40.1022 171.136
RightUpLeg  -23.242 -51.4419 -11.0617
RightLeg  16.4574 -7.74343 -1.23962
RightFoot  8.58384 -0.373678 2.47752
RightToes  -1.74623e-010 0 -2.59999e-017
Spine  5.26853 -4.58125 -4.48482
Spine1  10.5974 -5.9302 3.2075
HEad  -10.177 -19.0365 5.7939
LeftShoulder1  1.57466 -2.69342 -18.8694
LeftArm  23.3627 -10.981 -56.7009
LeftForeArm  100.763 -80.1691 -94.4969
LeftHand  0.0652319 9.13644 3.402
RightShoulder  2.63181 4.77533 25.7529
RightArm  -8.81198 -25.0896 30.1089
RightForeArm  36.5837 73.029 35.9833
RightHand  -0.0272505 -4.98799 -0.75493
LeftUpLeg  13.6463 22.8911 15.7241
LeftLeg  22.8252 -2.81536 -0.981624
LeftFoot  -3.94765 1.43358 -21.3654
LeftToes  -6.27559e-011 -2.10356e-011 8.24929e-012
503
root  -2.1684 37.4574 26.7791 -177.37 -44.667 170.826
RightUpLeg  -27.4805 -52.9143 -12.205
RightLeg  21.2318 -5.86312 -2.92522
RightFoot  13.1394 -0.18081 1.29067
RightToes  -1.74623e-010 0 -2.59999e-017
Spine  6.72042 -4.66952 -7.92526
Spine1  11.891 -7.25842 5.79231
HEad  -12.963 -21.1237 8.23941
LeftShoulder1  1.597 -2.72456 -19.1192
LeftArm  25.4257 -17.0269 -58.3384
LeftForeArm  87.9441 -79.9742 -85.759
LeftHand  0.105241 9.86593 3.89701
RightShoulder  2.68 4.81181 26.214
RightArm  -12.8207 -21.4896 29.4394
RightForeArm  12.9768 62.3722 21.0757
RightHand  -0.00100167 -3.76954 1.96679
LeftUpLeg  10.7778 22.4072 14.7272
LeftLeg  26.7886 -7.46451 -3.75183
LeftFoot  -16.1796 -0.734541 -20.353
LeftToes  -6.27559e-011 -2.10356e-011 8.24929e-012
504
root  -1.97448 36.7366 28.2248 -177.588 -49.5473 170.87
RightUpLeg  -26.2785 -50.8793 -16.8233
RightLeg  23.1148 -7.70876 -3.80057
RightFoot  16.8087 -0.221925 1.36595
RightToes  -1.74623e-010 0 -2.59999e-017
Spine  8.40521 -3.97614 -11.3893
Spine1  13.1278 -8.10267 9.16271
HEad  -16.0605 -24.4226 11.9028
LeftShoulder1  1.56223 -2.53049 -19.385
LeftArm  29.2724 -22.1238 -60.4337
LeftForeArm  77.4083 -79.6518 -78.7364
LeftHand  0.179773 11.8464 4.20086
RightShoulder  2.93071 5.04899 28.3221
RightArm  -18.8878 -20.1312 28.93
RightForeArm  16.0191 53.722 14.0846
RightHand  -0.0317959 -5.45724 -1.79122
LeftUpLeg  5.2206 19.532 12.5496
LeftLeg  32.9469 -7.71969 -4.98304
LeftFoot  -23.2436 -1.61164 -16.7238
LeftToes  -6.27559e-011 -2.10356e-011 8.24929e-012
505
root  -1.81456 36.7422 29.0662 -178.015 -52.6666 172.045
RightUpLeg  -22.3452 -42.7024 -21.1125
RightLeg  21.8428 -6.56914 -3.10025
RightFoot  19.8327 -1.61123 6.26909
RightToes  -1.74623e-010 0 -2.59999e-017
Spine  9.06641 -3.01161 -11.5537
Spine1  12.9313 -7.30985 9.6571
HEad  -18.0887 -28.0272 14.8113
LeftShoulder1  1.49934 -2.23171 -19.6537
LeftArm  31.9768 -20.7221 -60.584
LeftForeArm  87.4019 -79.8277 -89.0801
LeftHand  0.0897386 12.5459 2.46745
RightShoulder  3.2752 5.40663 30.8666
RightArm  -24.4436 -24.5636 30.3349
RightForeArm  35.4709 52.9509 11.9983
RightHand  0.222856 -12.8367 -4.39733
LeftUpLeg  1.72049 17.4893 11.6072
LeftLeg  34.8978 -7.3223 -5.08708
LeftFoot  -24.1199 -1.62931 -15.7531
LeftToes  -6.27559e-011 -2.10356e-011 8.24929e-012
506
root  -1.78073 37.4285 29.1886 -178.581 -53.6841 173.892
RightUpLeg  -19.0718 -29.7252 -23.0154
RightLeg  20.5587 -4.66936 -2.13902
RightFoot  21.611 -2.87912 10.2405
RightToes  -1.74623e-010 0 -2.59999e-017
Spine  7.83756 -2.72048 -10.1764
Spine1  12.4101 -6.1852 7.67479
HEad  -18.1133 -29.5403 15.5622
LeftShoulder1  1.44286 -1.94206 -20.0309
LeftArm  30.3622 -11.551 -56.995
LeftForeArm  110.54 -78.8266 -113.815
LeftHand  -0.118258 11.2873 -1.07249
RightShoulder  3.51326 5.6981 32.3034
RightArm  -24.8471 -30.6715 32.2268
RightForeArm  45.0682 55.7232 12.6275
RightHand  -0.450739 -15.8316 4.3002
LeftUpLeg  1.45975 16.7127 11.9556
LeftLeg  31.5067 -7.05878 -4.28876
LeftFoot  -20.3834 -1.14379 -15.9094
LeftToes  -6.27559e-011 -2.10356e-011 8.24929e-012
507
root  -1.78647 38.5519 28.9719 -179.16 -54.505 175.388
RightUpLeg  -17.0682 -22.577 -22.2015
RightLeg  20.9331 -1.70245 -0.924387
RightFoot  22.7273 -2.87816 9.8993
RightToes  -1.74623e-010 0 -2.59999e-017
Spine  5.9746 -3.08074 -10.007
Spine1  12.7262 -6.27873 7.21246
HEad  -16.1524 -29.0781 14.9083
LeftShoulder1  1.44323 -1.84638 -20.5412
LeftArm  26.8147 0.0132445 -52.5004
LeftForeArm  120.141 -76.8765 -127.864
LeftHand  -0.229912 10.4444 -3.78182
RightShoulder  3.53206 5.76376 32.2334
RightArm  -21.1847 -34.5217 32.3529
RightForeArm  36.3897 56.7772 14.0043
RightHand  -0.783557 -10.5481 15.8896
LeftUpLeg  2.74001 15.219 12.2345
LeftLeg  25.6537 -5.93846 -2.71832
LeftFoot  -13.1098 -0.172625 -16.5978
LeftToes  -6.27559e-011 -2.10356e-011 8.24929e-012
508
root  -1.75532 39.6196 28.6924 -179.357 -56.0415 175.705
RightUpLeg  -14.4185 -23.1519 -20.982
RightLeg  21.5101 3.94244 1.49691
RightFoot  21.2213 -2.74235 9.88028
RightToes  -1.74623e-010 0 -2.59999e-017
Spine  4.66046 -3.55731 -10.4925
Spine1  13.2973 -6.75511 7.44807
HEad  -13.1876 -28.9039 13.9609
LeftShoulder1  1.53157 -2.17274 -20.5502
LeftArm  24.6411 8.53089 -49.5634
LeftForeArm  120.571 -76.2891 -130.347
LeftHand  -0.154735 10.386 -2.18348
RightShoulder  3.37099 5.588 31.191
RightArm  -18.242 -36.5327 32.5239
RightForeArm  21.9324 57.8476 16.1055
RightHand  -0.53533 -7.86107 21.4025
LeftUpLeg  4.09157 12.5284 12.0748
LeftLeg  20.196 -3.83295 -1.59116
LeftFoot  -4.59848 1.06622 -17.4241
LeftToes  -6.27559e-011 -2.10356e-011 8.24929e-012
509
root  -1.65373 40.1145 28.4823 -178.817 -57.343 175.133
RightUpLeg  -12.496 -23.0228 -20.6152
RightLeg  23.5746 8.37374 3.77615
RightFoot  16.3412 -2.49834 10.5774
RightToes  -1.74623e-010 0 -2.59999e-017
Spine  3.6852 -3.82681 -9.81378
Spine1  13.5954 -6.46946 5.91877
HEad  -11.1334 -29.5172 13.279
LeftShoulder1  1.60363 -2.6182 -19.7135
LeftArm  24.0264 12.7141 -48.1004
LeftForeArm  121.794 -76.2474 -130.785
LeftHand  0.0800957 10.5651 2.95566
RightShoulder  3.0979 5.2335 29.5428
RightArm  -16.3034 -36.8014 33.386
RightForeArm  14.5147 60.0125 18.539
RightHand  -0.325774 -7.05257 18.3004
LeftUpLeg  4.09221 10.637 11.4464
LeftLeg  18.1295 -1.40303 -0.76144
LeftFoot  0.350602 1.61826 -15.7445
LeftToes  -6.27559e-011 -2.10356e-011 8.24929e-012
